<?xml version="1.0" encoding="utf-8"?>
<!-- Generator: Adobe Illustrator 21.0.0, SVG Export Plug-In . SVG Version: 6.00 Build 0)  -->
<svg version="1.1" id="Layer_1" xmlns="http://www.w3.org/2000/svg" xmlns:xlink="http://www.w3.org/1999/xlink" x="0px" y="0px"
	 viewBox="0 0 232 113.5" style="enable-background:new 0 0 232 113.5;" xml:space="preserve">
<style type="text/css">
	.st0{fill:#606161;}
</style>
<path class="st0" d="M84.9,3.2L56.6,70.7H38.1L24.2,16.8c-0.8-3.3-1.6-4.5-4.1-5.9C15.9,8.6,8.9,6.5,2.9,5.2l0.4-2H33
	c3.8,0,7.2,2.5,8,6.9l7.4,39L66.5,3.2H84.9z M157.2,48.7c0.1-17.8-24.6-18.8-24.5-26.7c0.1-2.4,2.4-5,7.4-5.7
	c2.5-0.3,9.4-0.6,17.2,3L160.4,5c-4.2-1.5-9.6-3-16.3-3c-17.2,0-29.4,9.2-29.5,22.3c-0.1,9.7,8.7,15.1,15.3,18.4
	c6.8,3.3,9.1,5.4,9.1,8.4c-0.1,4.5-5.4,6.5-10.4,6.6c-8.8,0.1-13.9-2.4-17.9-4.3l-3.2,14.8c4.1,1.9,11.6,3.5,19.4,3.6
	C145.1,71.7,157.1,62.7,157.2,48.7 M202.7,70.7h16.1L204.8,3.2h-14.9c-3.4,0-6.2,1.9-7.4,4.9l-26.2,62.5h18.3l3.6-10.1h22.4
	L202.7,70.7z M183.2,46.8l9.2-25.3l5.3,25.3H183.2z M109.8,3.2L95.4,70.7H77.9L92.4,3.2H109.8z"/>
<g>
	<path class="st0" d="M39.4,98.6c-1.6,1.3-3.8,2-6.7,2h-5.6v9.9h-5.6V83h11.5c2.7,0,4.8,0.7,6.3,2.1c1.6,1.4,2.4,3.6,2.4,6.6
		C41.8,95,41,97.3,39.4,98.6z M35.1,88.7c-0.7-0.6-1.7-0.9-3-0.9h-5v8.1h5c1.3,0,2.3-0.3,3-1c0.7-0.7,1.1-1.7,1.1-3.1
		C36.2,90.3,35.9,89.3,35.1,88.7z"/>
	<path class="st0" d="M48.1,83h5.6v22.6h13.4v5h-19V83z"/>
	<path class="st0" d="M80.4,83h6.3l9.5,27.6h-6.1l-1.8-5.7h-9.9l-1.8,5.7h-5.9L80.4,83z M80,100.1h6.9l-3.4-10.8L80,100.1z"/>
	<path class="st0" d="M118.2,83v4.9h-8v22.7h-5.6V87.9h-8.1V83H118.2z"/>
	<path class="st0" d="M128.4,110.6h-5.6V83h5.6V110.6z"/>
	<path class="st0" d="M135.4,83h5.9l10.6,19.2V83h5.2v27.6h-5.6L140.7,91v19.6h-5.2V83z"/>
	<path class="st0" d="M164.3,83h5.7v16.9c0,1.9,0.2,3.3,0.7,4.1c0.7,1.5,2.1,2.3,4.4,2.3c2.3,0,3.7-0.8,4.4-2.3
		c0.4-0.9,0.7-2.3,0.7-4.1V83h5.7v16.9c0,2.9-0.4,5.2-1.3,6.8c-1.6,3-4.8,4.5-9.4,4.5c-4.6,0-7.8-1.5-9.4-4.5
		c-0.9-1.6-1.3-3.9-1.3-6.8V83z"/>
	<path class="st0" d="M210.8,83h8.1v27.6h-5.2V91.9c0-0.5,0-1.3,0-2.3c0-1,0-1.7,0-2.2l-5.1,23.1h-5.4l-5-23.1c0,0.5,0,1.3,0,2.2
		c0,1,0,1.7,0,2.3v18.7h-5.2V83h8.1l4.9,21.7L210.8,83z"/>
</g>
</svg>
